<?xml version="1.0" encoding="utf-8"?>
<!-- Generator: Adobe Illustrator 26.0.1, SVG Export Plug-In . SVG Version: 6.00 Build 0)  -->
<svg version="1.1" id="_x3C_Layer_x3E_" xmlns="http://www.w3.org/2000/svg" xmlns:xlink="http://www.w3.org/1999/xlink" x="0px"
	 y="0px" viewBox="0 0 2745 1830" style="enable-background:new 0 0 2745 1830;" xml:space="preserve">
<style type="text/css">
	.st0{fill:#9DC4D1;}
	.st1{fill:#FFFFFF;}
	.st2{fill:#845D49;}
	.st3{fill:#FEBC42;}
	.st4{fill:#757574;}
	.st5{fill:#FFDDC0;}
</style>
<g>
	<polygon class="st0" points="1210.95,981.56 1534.05,981.56 1523.04,933.81 1218.74,933.81 	"/>
	<g>
		<polygon class="st0" points="1855.88,979.85 2178.13,979.85 2125.22,934.52 1822.23,934.52 		"/>
		<polygon class="st0" points="890.98,979.85 568.73,979.85 621.64,934.52 924.63,934.52 		"/>
		<polygon class="st0" points="2116.76,1331.36 2184.54,1422.69 1643.18,1422.69 1620.59,1331.36 		"/>
		<polygon class="st0" points="1534.05,981.56 1855.88,979.85 1963.13,1119.17 1568.81,1119.17 		"/>
		<polygon class="st0" points="1963.13,1119.17 2116.76,1331.36 2612.93,1331.36 2351.97,1120.39 		"/>
		<polygon class="st0" points="628.24,1331.36 1125.48,1327.04 1101.82,1422.69 560.45,1422.69 		"/>
		<polygon class="st0" points="787.15,1119.17 877.4,981.56 1210.95,981.56 1176.91,1119.17 		"/>
		<polygon class="st0" points="628.24,1331.36 787.15,1119.17 392.4,1120.9 132.07,1331.36 		"/>
		<g>
			<polygon class="st0" points="1178.56,1112.51 1125.48,1332.85 1620.59,1331.36 1568.81,1119.17 			"/>
			<g>
				<path class="st0" d="M2608.96,1337.19H136.03c-2.39,0-4.34-1.94-4.34-4.34c0-2.39,1.94-4.34,4.34-4.34h2472.93
					c2.4,0,4.34,1.94,4.34,4.34C2613.3,1335.25,2611.36,1337.19,2608.96,1337.19z"/>
			</g>
			<g>
				<path class="st0" d="M2348.07,1124.72H395.76c-2.39,0-4.34-1.94-4.34-4.34s1.94-4.34,4.34-4.34h1952.31
					c2.39,0,4.34,1.94,4.34,4.34S2350.47,1124.72,2348.07,1124.72z"/>
			</g>
			<g>
				<path class="st0" d="M2175.23,985.89H572.79c-2.4,0-4.34-1.94-4.34-4.34c0-2.4,1.94-4.34,4.34-4.34h1602.44
					c2.4,0,4.34,1.94,4.34,4.34C2179.56,983.95,2177.62,985.89,2175.23,985.89z"/>
			</g>
			<g>
				<path class="st0" d="M560.45,1427.03c-0.9,0-1.8-0.28-2.58-0.85c-1.92-1.43-2.32-4.14-0.9-6.07l360.41-485.61
					c1.43-1.92,4.15-2.32,6.07-0.9c1.92,1.43,2.32,4.14,0.9,6.07l-360.41,485.61C563.09,1426.42,561.78,1427.03,560.45,1427.03z"/>
			</g>
			<g>
				<path class="st0" d="M1101.82,1427.03c-0.34,0-0.69-0.04-1.04-0.13c-2.33-0.58-3.74-2.93-3.17-5.25l120.14-485.61
					c0.58-2.32,2.93-3.74,5.25-3.17c2.33,0.58,3.74,2.93,3.17,5.25l-120.14,485.61C1105.54,1425.71,1103.77,1427.03,1101.82,1427.03
					z"/>
			</g>
			<g>
				<path class="st0" d="M1643.18,1427.03c-1.95,0-3.72-1.32-4.21-3.3l-120.14-485.61c-0.57-2.33,0.85-4.68,3.17-5.25
					c2.34-0.57,4.68,0.85,5.25,3.17l120.14,485.61c0.57,2.33-0.85,4.68-3.17,5.25C1643.87,1426.99,1643.52,1427.03,1643.18,1427.03z
					"/>
			</g>
			<g>
				<path class="st0" d="M2184.55,1427.03c-1.33,0-2.64-0.6-3.49-1.75l-360.41-485.61c-1.43-1.92-1.03-4.64,0.9-6.07
					c1.92-1.43,4.64-1.03,6.07,0.9l360.41,485.61c1.43,1.92,1.03,4.64-0.9,6.07C2186.35,1426.75,2185.45,1427.03,2184.55,1427.03z"
					/>
			</g>
		</g>
	</g>
</g>
<g>
	<path class="st1" d="M722.32,746.89c-4.09,14.53,5.44,46.18,2.34,91.27c-1.57,22.91-3.93,43.02,9.95,48.44
		c32.11,12.53,47.15,1.46,52.47-43.47c21.07-9.6,29.69-43.99,34.75-39.62c7.8,6.74,12.84,11.97,14.03,15.01
		c8.53,21.84-12.17,118.57-12.17,118.57l26.93,35.05l-36.43,48.06l23.01,87.9l259.57-104.84l-48.33-81.67l-49.62-3.61l-11.82-71.16
		l5.85-48.65l-24.7-24.61l-10.52-33.46l-14.73-21.29l-39.36-31.72l-68.65-18.89l-77.86,5.57l-15.44,17.25l-46.14,19.04l-4.76,18.81
		L722.32,746.89z"/>
	<path class="st2" d="M1100.69,1012.18c10.1,24-39.51,67.79-110.82,97.81c-71.31,30.02-137.31,34.9-147.41,10.9
		c-10.11-24,43.34-56.25,114.64-86.27C1028.42,1004.61,1090.59,988.18,1100.69,1012.18z"/>
	<g>
		<path d="M881.79,1140.62c-22.01,0-38.32-5.39-43.6-17.92c-10.21-24.25,29.19-55.32,117.12-92.34
			c39.13-16.48,71.33-27.16,95.68-31.77c30.55-5.77,48.2-1.91,53.97,11.79l0,0c5.72,13.59-3.54,32.03-26.08,51.92
			c-21.3,18.8-52.27,37.25-87.21,51.96C953.61,1130.29,912.25,1140.62,881.79,1140.62z M1074.9,1005.28
			c-7.13,0-15.02,1.06-22.18,2.42c-23.72,4.48-55.28,14.98-93.81,31.2c-111.89,47.11-115.72,71.79-112.17,80.21
			c7.8,18.53,67.77,17.6,141.34-13.38c34.04-14.33,64.11-32.22,84.67-50.37c18.76-16.56,27.61-32.03,23.68-41.38l0,0
			C1093.67,1007.44,1085.06,1005.28,1074.9,1005.28z"/>
	</g>
	<g>
		<path d="M842.46,1125.53c-1.79,0-3.5-1.05-4.26-2.8c-3.55-8.26-34.53-81.31-28.5-103.74c0.94-3.48,3.42-12.71,67.42-42.41
			c52.54-24.39,158.35-66.22,173.27-59.2c17.67,8.3,48.55,78.91,54.55,92.98c1.01,2.35-0.09,5.08-2.44,6.08
			c-2.35,1.01-5.07-0.08-6.08-2.44c-13.38-31.33-38.78-82.98-49.97-88.24c-6.68-2.14-53.88,12.04-118.36,38.66
			c-68.14,28.13-107.25,50.35-109.45,56.99c-4.4,16.36,18.77,76.04,28.07,97.66c1.01,2.35-0.07,5.08-2.42,6.09
			C843.7,1125.41,843.07,1125.53,842.46,1125.53z"/>
	</g>
	<g>
		<path d="M823.69,1015.13c-0.19,0-0.38-0.01-0.56-0.04c-2.52-0.31-4.32-2.55-4.04-5.07c0.18-1.61,5.33-39.77,91.57-73.64l1.2-0.51
			c84.13-37.84,118.77-16.83,120.2-15.93c2.16,1.38,2.79,4.24,1.42,6.4c-1.36,2.15-4.21,2.78-6.36,1.44
			c-0.54-0.32-32.88-18.8-111.55,16.58l-1.41,0.6c-80.26,31.53-85.82,65.79-85.86,66.13
			C827.96,1013.41,825.97,1015.13,823.69,1015.13z"/>
	</g>
	<g>
		<path d="M756.71,896.21c-10.18,0-20.47-2.88-24.72-5.79c-7.63-5.23-15.52-17.41-15.1-29.67c0.07-2.14,0.88-7.62,2.29-17.14
			c1.74-11.73,5.32-35.91,4.67-40.47c-1.79-3.34-3.76-6.53-6.44-10.89l-1.82-2.95c-7.46-12.14,3.81-50.29,6.14-57.81
			c0.76-2.44,3.35-3.81,5.8-3.05c2.44,0.76,3.81,3.35,3.05,5.8c-5.28,17.05-10.98,43.9-7.09,50.22l1.81,2.94
			c2.77,4.49,4.96,8.04,6.94,11.79c1.82,3.44,1.06,12.42-3.89,45.79c-1.1,7.4-2.13,14.39-2.19,16.1
			c-0.29,8.52,5.52,17.9,11.08,21.71c3.57,2.45,16.83,5.69,26.93,3.43c4.35-0.97,7.34-2.81,8.89-5.46
			c2.97-5.08,7.38-26.25,9.46-38.4c0.23-1.33,1.03-2.5,2.19-3.19c0.2-0.12,20.71-12.71,33.84-40.03c12.63-26.28-3.9-52.9-4.07-53.17
			c-1.37-2.16-0.73-5.02,1.42-6.39c2.15-1.37,5.01-0.74,6.39,1.41c0.8,1.26,19.51,31.16,4.61,62.16
			c-12.17,25.32-29.86,38.86-35.6,42.77c-1.37,7.68-5.98,32.22-10.25,39.52c-2.86,4.89-8,8.29-14.87,9.82
			C763.17,895.91,759.95,896.21,756.71,896.21z"/>
	</g>
	<g>
		<path d="M733.86,739.82c-0.73,0-1.47-0.17-2.17-0.54c-0.3-0.16-30.14-15.93-45.62-19.74c-1.52-0.37-2.74-1.48-3.26-2.95
			c-0.52-1.47-0.26-3.11,0.68-4.35c0.75-0.99,18.82-24.15,57.89-25.86c2.58-0.11,4.72,1.87,4.83,4.42c0.11,2.56-1.87,4.72-4.42,4.83
			c-23.99,1.06-38.91,10.96-46.01,17.2c16.78,5.86,39.16,17.69,40.25,18.27c2.26,1.2,3.12,4,1.92,6.26
			C737.12,738.93,735.52,739.82,733.86,739.82z"/>
	</g>
	<g>
		<path d="M719.52,751.52c-0.8,0-1.6-0.21-2.33-0.63c-0.16-0.1-16.3-9.47-31.66-13.24c-1.51-0.37-2.74-1.48-3.26-2.95
			c-0.52-1.47-0.26-3.11,0.68-4.35c0.23-0.3,5.7-7.39,16.91-14.07c2.2-1.31,5.04-0.59,6.35,1.61c1.31,2.2,0.59,5.04-1.61,6.35
			c-3.87,2.31-6.94,4.66-9.23,6.65c13.82,4.64,25.9,11.66,26.5,12.01c2.21,1.29,2.95,4.13,1.66,6.33
			C722.66,750.7,721.11,751.52,719.52,751.52z"/>
	</g>
	<g>
		<path d="M838.6,737.73c-3.52,0-11.34-1.93-32.13-10.21c-17.84-7.1-36.14-15.46-47.77-21.8c-13.81-7.53-16.56-11.1-16.65-14.71
			c0-0.01,0-0.02,0-0.02c-0.16-8.09,5.57-23.9,28.36-25.82c9.1-0.77,20.6,5.04,34.21,17.25c18.1,16.24,39.26,44.16,39.4,50.12
			c0.04,1.8-0.85,3.44-2.4,4.39C840.96,737.3,840.26,737.73,838.6,737.73z M751.35,689.97c6.45,7.37,58.83,30.19,79.55,36.72
			c-11.11-16.36-42.46-53.7-59.71-52.32C753.93,675.84,751.65,686.61,751.35,689.97z"/>
	</g>
	<g>
		<path d="M901.64,764.34c-1.04,0-2.08-0.35-2.93-1.05c-0.42-0.34-42.35-34.48-72.43-44.35c-2.43-0.8-3.75-3.41-2.96-5.85
			c0.8-2.43,3.42-3.75,5.85-2.96c21.69,7.12,48.13,25.31,63.26,36.58c-8.44-22.74-28.1-65.57-58.77-74.07
			c-22.86-6.33-44.11,4.77-44.32,4.88c-2.26,1.2-5.06,0.35-6.27-1.9c-1.2-2.25-0.36-5.05,1.89-6.26
			c0.99-0.53,24.65-12.99,51.17-5.65c47.03,13.03,69.07,91.43,69.98,94.76c0.53,1.94-0.25,4.01-1.94,5.11
			C903.4,764.09,902.52,764.34,901.64,764.34z"/>
	</g>
	<g>
		<path d="M931.91,803.1c-1.94,0-3.7-1.22-4.36-3.09c-4.4-12.44-18.84-46.46-32.63-54.46c-2.21-1.28-2.97-4.12-1.68-6.33
			c1.28-2.21,4.12-2.97,6.33-1.68c11.8,6.85,22.48,26.36,29.25,41.18c1.7-46.38-11.65-78.59-27.56-87.62
			c-16.95-9.62-42.52-5.38-42.77-5.33c-2.52,0.43-4.92-1.26-5.35-3.78c-0.43-2.52,1.26-4.92,3.78-5.35
			c1.17-0.2,29.11-4.83,48.91,6.41c20.05,11.37,38.2,52.52,30.69,115.97c-0.25,2.14-1.95,3.82-4.09,4.06
			C932.26,803.09,932.08,803.1,931.91,803.1z"/>
	</g>
	<g>
		<path d="M954.37,852.22c-0.49,0-0.98-0.08-1.46-0.24c-1.73-0.57-2.96-2.11-3.15-3.92c-2.23-21.52-9.52-53.89-18.72-58.47
			c-2.29-1.14-3.22-3.92-2.08-6.21c1.14-2.29,3.93-3.22,6.21-2.08c11.76,5.87,18.16,30.44,21.31,48.23
			c4.9-22.22,6.99-62.71-3.16-87.72c-4.82-11.87-10.69-19.2-16.99-21.21c-4.81-1.53-8.48,0.61-8.52,0.63
			c-2.16,1.38-5.02,0.75-6.4-1.41c-1.38-2.15-0.75-5.02,1.41-6.4c2.66-1.7,9.08-3.95,16.32-1.65c9.13,2.91,16.79,11.84,22.76,26.55
			c14,34.51,7.58,99.72-4.14,112.4C956.88,851.7,955.65,852.22,954.37,852.22z"/>
	</g>
	<g>
		<path d="M978.11,896.03c-1.89,0-3.64-1.16-4.33-3c-0.69-1.83-16.96-45.32-14.6-80.15c0.17-2.55,2.36-4.5,4.94-4.31
			c2.55,0.17,4.48,2.38,4.31,4.94c-1.21,17.9,3.02,38.84,7.15,54.24c1.69-7.16,4.09-14.03,6.46-20.79
			c4.18-11.95,8.13-23.23,7.84-35.14c-0.58-23.9-16.85-30.27-21.82-31.65c-1.9-0.53-3.45-2.26-3.57-4.22
			c-0.16-2.55,1.77-4.75,4.33-4.92c0.62-0.03,1.21,0.04,1.76,0.23c4.97,1.41,27.81,9.54,28.56,40.34
			c0.33,13.6-4.09,26.22-8.36,38.42c-4.55,13.01-9.26,26.46-8.05,40.99c0.19,2.3-1.34,4.4-3.6,4.9
			C978.79,895.99,978.45,896.03,978.11,896.03z"/>
	</g>
	<g>
		<path d="M850.61,976.76c-0.84,0-1.69-0.23-2.46-0.71c-20.15-12.67-28.58-22.07-28.65-47.5c-0.03-9.28,3.15-22.88,6.83-38.64
			c5.49-23.52,11.71-50.17,7.22-64.17c-4.74-14.78-9.46-17.26-10.62-17.14c-2.19,0.94-4.76,0.05-5.9-2.08
			c-1.2-2.26-0.35-5.06,1.91-6.27c0.6-0.32,3.84-1.84,8.21-0.07c6.06,2.46,11.18,10.1,15.23,22.72c5.27,16.44-1.26,44.42-7.02,69.11
			c-3.4,14.56-6.61,28.31-6.59,36.51c0.06,21.23,5.53,27.88,24.31,39.68c2.17,1.36,2.82,4.22,1.46,6.39
			C853.65,975.99,852.15,976.76,850.61,976.76z M823.28,808.43C823.28,808.43,823.27,808.43,823.28,808.43
			C823.27,808.43,823.27,808.43,823.28,808.43z M823.29,808.42C823.28,808.42,823.28,808.42,823.29,808.42
			C823.28,808.42,823.28,808.42,823.29,808.42z"/>
	</g>
	<g>
		<path d="M996.98,918.21c-0.46,0-0.93-0.07-1.39-0.22c-2.44-0.77-3.79-3.37-3.03-5.81c6.8-21.58-9.7-63.24-9.87-63.66
			c-0.95-2.38,0.2-5.07,2.58-6.02c2.38-0.95,5.07,0.2,6.02,2.58c0.73,1.83,17.9,45.15,10.11,69.89
			C1000.78,916.94,998.95,918.21,996.98,918.21z"/>
	</g>
	<path d="M736.73,783.47c7.18,11.12,17.27-18.38,13.53-21.83C746.52,758.19,729.55,772.35,736.73,783.47z"/>
	<path d="M736.07,868.2c4.91,5.24,7.63,0.31,5.68-2.16c-3.05-3.86-0.29-8.63-3.86-8.62C735.14,857.44,733.24,865.19,736.07,868.2z"
		/>
</g>
<g>
	<polygon class="st1" points="1906.53,745.68 1917.49,728.14 1939.65,749 1963.13,723.26 1935.48,705.44 1953.21,684.57 
		1936.43,671.9 1939.99,674.58 1923.16,661.96 1908.02,684.77 1883.24,663.14 1865.01,692.83 1891.19,708.35 1877.37,723.74 	"/>
	<g>
		<polygon class="st1" points="1893.45,735.04 1893.47,735.05 1893.49,735.07 		"/>
		<path class="st1" d="M1893.47,735.05c-0.5-0.29-44.88-26.27-67.4-14.46c-13.56,7.11-40.81,79.65-40.81,79.65l75.53,56.84
			c0,0,62.16-46.27,65.24-61.27C1931.13,770.91,1893.9,735.47,1893.47,735.05z"/>
	</g>
	<path class="st1" d="M1859.21,899.51l-114.29-86.01l17.04-18.15c18.17-5.76,109.59,63.45,109.97,82.75L1859.21,899.51z"/>
	<path d="M1861.82,902.47c-5.24,6.96-37.68-9.6-69.24-33.35c-31.56-23.75-56.2-50.4-50.96-57.36c5.24-6.97,38.38,8.39,69.94,32.14
		C1843.12,867.65,1867.06,895.51,1861.82,902.47z"/>
	<path class="st1" d="M1650.54,944.56c0,0,81.89-40.9,119.36-110.67c15.69,7.47,47.02,30.76,62.8,47.26
		c-56.66,55.31-73.28,145.33-73.28,145.33L1650.54,944.56z"/>
	<g>
		<path d="M1759.42,1031.13c-0.28,0-0.56-0.02-0.85-0.08c-2.52-0.46-4.18-2.88-3.71-5.39c0.68-3.66,16.89-88.69,71.3-144.51
			c-14.4-14.06-39.13-32.72-54.39-41.08c-38.55,67.81-115.83,106.97-119.17,108.63c-2.28,1.14-5.07,0.21-6.21-2.07
			s-0.21-5.07,2.07-6.21c0.8-0.41,81.04-41.1,117.35-108.71c1.17-2.18,3.84-3.05,6.07-1.99c16.71,7.96,48.49,31.86,64.16,48.24
			c1.75,1.84,1.71,4.74-0.11,6.52c-54.97,53.67-71.8,141.97-71.96,142.86C1763.56,1029.57,1761.61,1031.13,1759.42,1031.13z"/>
	</g>
	<path class="st1" d="M1750.42,1065.73l-135.09-101.66l21.17-22.81c22.12-7.67,130.16,74.15,129.98,97.81L1750.42,1065.73z"/>
	<g>
		<path d="M1750.42,1070.36c-1,0-1.97-0.32-2.79-0.93l-135.09-101.66c-1.05-0.79-1.71-1.99-1.83-3.29c-0.12-1.31,0.33-2.6,1.22-3.56
			l21.17-22.81c0.51-0.56,1.16-0.98,1.88-1.22c15.28-5.33,53.57,20.39,69.31,31.69c24.88,17.86,66.96,52.81,66.82,70.53
			c-0.01,0.83-0.24,1.64-0.66,2.35l-16.06,26.66c-0.68,1.13-1.8,1.91-3.09,2.16C1751.01,1070.34,1750.71,1070.36,1750.42,1070.36z
			 M1622.22,963.46l126.88,95.48l12.64-20.99c-1.74-9.48-25.41-34.98-62.85-61.86c-30.36-21.79-52.58-31.63-59.93-30.68
			L1622.22,963.46z"/>
	</g>
	<path class="st1" d="M1747.85,1119.17l-183.16-137.83l28.45-30.59c29.83-10.18,176.33,100.75,176.23,132.61L1747.85,1119.17z"/>
	<g>
		<path d="M1747.85,1123.8c-1,0-1.97-0.32-2.79-0.93l-183.16-137.83c-1.05-0.79-1.71-1.99-1.83-3.29s0.33-2.6,1.22-3.56l28.45-30.59
			c0.52-0.56,1.17-0.98,1.9-1.23c19.91-6.78,71.11,27.68,92.2,42.82c31.21,22.4,90.22,70.92,90.15,94.2c0,0.83-0.23,1.65-0.66,2.37
			l-21.52,35.81c-0.68,1.13-1.8,1.91-3.09,2.16C1748.45,1123.77,1748.15,1123.8,1747.85,1123.8z M1571.59,980.73l174.94,131.65
			l18.13-30.18c-1.88-14.68-39.06-51.65-86.21-85.5c-43.91-31.51-73.21-43.58-82.82-41.83L1571.59,980.73z"/>
	</g>
	<g>
		<path d="M1859.21,904.14c-1,0-1.97-0.32-2.78-0.93l-114.29-86.01c-1.05-0.79-1.72-1.99-1.83-3.3c-0.11-1.31,0.34-2.61,1.24-3.57
			l17.04-18.15c0.54-0.58,1.22-1.01,1.98-1.25c12.33-3.91,41.8,15.31,58.27,27.12c21.3,15.28,57.44,45.11,57.73,59.96
			c0.02,0.86-0.21,1.71-0.65,2.46l-12.72,21.4c-0.67,1.13-1.8,1.92-3.09,2.18C1859.81,904.12,1859.51,904.14,1859.21,904.14z
			 M1751.83,812.91l106.04,79.79l9.27-15.59c-2.06-7.93-23.17-29.63-53.7-51.53c-27.61-19.8-43.89-26.16-49.12-25.97L1751.83,812.91
			z"/>
	</g>
	<g>
		<g>
			<path d="M1860.79,861.72c-1.42,0-2.81-0.65-3.72-1.87c-1.52-2.05-1.1-4.95,0.95-6.48c25.23-18.77,61.59-49.33,63.47-58.48
				c3.74-18.24-20.6-46.3-30.82-56.11c-12.27-7.1-45.98-22.72-62.45-14.08c-8.28,4.34-27.57,47.74-38.62,77.18
				c-0.9,2.39-3.58,3.6-5.97,2.71c-2.4-0.9-3.61-3.57-2.71-5.97c4.65-12.39,28.59-74.58,43-82.13
				c23.94-12.55,67.41,11.96,71.65,14.42c0.21,0.11,0.42,0.24,0.62,0.38c0.18,0.13,0.35,0.28,0.5,0.43
				c2.3,2.19,39.41,38.03,33.87,65.02c-3.26,15.93-56.39,56.15-67.01,64.05C1862.72,861.42,1861.75,861.72,1860.79,861.72z"/>
		</g>
	</g>
	<g>
		<path d="M1939.65,753.63c-1.18,0-2.31-0.45-3.18-1.26l-18.05-16.99l-7.97,12.76c-1.36,2.17-4.22,2.83-6.38,1.47
			c-2.17-1.36-2.83-4.21-1.47-6.38l10.96-17.55c0.74-1.18,1.96-1.96,3.34-2.14c1.38-0.17,2.76,0.27,3.77,1.22l18.73,17.64
			l16.62-18.21l-23.04-14.85c-1.12-0.72-1.88-1.89-2.07-3.22c-0.2-1.32,0.19-2.66,1.05-3.68l14.55-17.13l-22.2-16.7l-12.43,18.72
			c-0.74,1.11-1.92,1.85-3.24,2.03c-1.31,0.17-2.66-0.22-3.66-1.1l-20.65-18.03l-12.9,21.01l22.14,13.12
			c1.19,0.71,2.01,1.91,2.22,3.28c0.21,1.37-0.21,2.76-1.13,3.8l-13.82,15.39c-1.71,1.9-4.63,2.06-6.54,0.35
			c-1.9-1.71-2.06-4.64-0.35-6.54l10.05-11.19l-21.33-12.64c-1.07-0.63-1.84-1.67-2.14-2.87c-0.3-1.2-0.1-2.48,0.55-3.54
			l18.23-29.69c0.71-1.16,1.9-1.95,3.25-2.16c1.34-0.21,2.71,0.19,3.74,1.09l20.8,18.15l12.21-18.41c0.71-1.06,1.82-1.79,3.07-2
			c1.25-0.22,2.54,0.09,3.56,0.86l13.05,9.78c0.08,0.05,0.15,0.11,0.23,0.17l3.56,2.68c0.08,0.06,0.15,0.12,0.22,0.18l13.01,9.83
			c1.02,0.77,1.67,1.92,1.81,3.19c0.14,1.27-0.25,2.54-1.08,3.51l-14.31,16.84l23.21,14.96c1.14,0.74,1.91,1.94,2.08,3.3
			c0.18,1.35-0.25,2.71-1.17,3.72l-23.48,25.74c-0.84,0.92-2.01,1.46-3.25,1.51C1939.77,753.63,1939.71,753.63,1939.65,753.63z"/>
	</g>
	<path class="st2" d="M1747.85,1119.17c-8.4,11.16-56.21-10.65-106.79-48.71c-50.58-38.06-84.77-77.96-76.37-89.12
		s56.21,10.65,106.79,48.71C1722.06,1068.1,1756.25,1108.01,1747.85,1119.17z"/>
	<g>
		<path d="M1739.76,1126.71c-24.57,0-74.3-32.09-101.48-52.55c-24.72-18.61-46.4-38.26-61.04-55.34
			c-16.68-19.47-22-32.64-16.25-40.27c14.24-18.91,80.32,22.99,113.27,47.79c24.72,18.6,46.4,38.26,61.04,55.34
			c16.68,19.46,22,32.64,16.25,40.27C1749.06,1125.27,1744.98,1126.71,1739.76,1126.71z M1572.5,982.86c-2.1,0-3.48,0.43-4.11,1.26
			c-1.13,1.5-0.48,9.58,15.88,28.67c14.21,16.58,35.37,35.75,59.57,53.96c56.86,42.79,96.09,55.22,100.3,49.63
			c1.13-1.5,0.48-9.58-15.88-28.67c-14.21-16.59-35.37-35.75-59.57-53.96C1620.24,997.28,1584.6,982.86,1572.5,982.86z"/>
	</g>
</g>
<g>
	<path class="st1" d="M2044.75,1404.3c-20.92-5.55-118.06-1-118.06-1c-22.65,16.14-58.99,152.87-46.79,176.01l103,57.66l11.43-4.41
		l23.26-54.69l-27.67-18.58l11.37-18l28.8,4.33l9.63-43.08l-29.02-9.22l3.07-20.88l32.36-1.95
		C2046.14,1470.48,2065.67,1409.85,2044.75,1404.3z"/>
	<path class="st1" d="M1574.31,1530.16l-86.13-18.41c-18.03-43.47,30.99-219.31,64.97-244.41l83.9,26.79L1574.31,1530.16z"/>
	<g>
		<path d="M1574.31,1534.8c-0.32,0-0.65-0.04-0.97-0.1l-86.13-18.41c-1.49-0.32-2.73-1.35-3.31-2.76
			c-10.27-24.76-0.12-84.47,12.79-132.08c12.23-45.09,33.63-103,53.7-117.83c1.2-0.88,2.74-1.13,4.16-0.69l83.9,26.79
			c2.44,0.78,3.78,3.39,3,5.82c-0.78,2.44-3.38,3.78-5.82,3.01l-81.52-26.04c-32.93,29-76.3,192.33-62.47,235.25l83.63,17.87
			c2.5,0.54,4.1,3,3.56,5.5C1578.37,1533.3,1576.45,1534.8,1574.31,1534.8z"/>
	</g>
	<path d="M1574.7,1533.81c-13.6-3.62-11.15-62.36,6.35-128.21c17.5-65.85,45.29-117.68,58.89-114.07
		c13.6,3.62,7.87,61.31-9.64,127.16C1612.8,1484.54,1588.3,1537.42,1574.7,1533.81z"/>
	<path class="st1" d="M1622.73,1515.93l-45.41-8.55c-6.93-32.23,31.02-170.5,51.03-191.99l43.66,15.13L1622.73,1515.93z"/>
	<g>
		<path d="M1622.74,1520.56c-0.29,0-0.57-0.02-0.86-0.08l-45.41-8.54c-1.83-0.34-3.28-1.75-3.67-3.58
			c-7.09-32.98,29.96-172.28,52.17-196.12c1.25-1.34,3.18-1.82,4.91-1.22l43.66,15.13c2.42,0.84,3.7,3.48,2.86,5.89
			c-0.83,2.42-3.48,3.71-5.89,2.86l-40.62-14.08c-19.57,26.48-52.08,148.93-48.49,182.61l42.2,7.94c2.51,0.47,4.17,2.9,3.69,5.41
			C1626.87,1519.01,1624.92,1520.56,1622.74,1520.56z"/>
	</g>
	<path d="M1622.71,1519.51c-6.61-1.76-1.06-47.74,12.69-99.46c13.75-51.72,32.79-93.99,39.4-92.23c6.61,1.76-1.71,46.87-15.46,98.59
		S1629.33,1521.27,1622.71,1519.51z"/>
	<path class="st1" d="M1874.7,1544.1l-240.04-56.16c-6.25-19.17,20.24-115.65,33.81-127.21l236.24,70.44L1874.7,1544.1z"/>
	<g>
		<path d="M1874.7,1548.74c-0.35,0-0.7-0.04-1.06-0.12l-240.04-56.16c-1.58-0.37-2.85-1.53-3.35-3.07
			c-6.58-20.18,19.75-119,35.21-132.17c1.19-1.02,2.82-1.36,4.33-0.91l236.24,70.45c2.46,0.73,3.85,3.31,3.12,5.76
			c-0.73,2.46-3.33,3.85-5.76,3.12l-233.52-69.63c-12.52,15.95-34.07,97.23-31.32,118.11l237.21,55.5c2.49,0.58,4.04,3.07,3.46,5.56
			C1878.71,1547.29,1876.8,1548.74,1874.7,1548.74z"/>
	</g>
	<path class="st1" d="M1874.73,1589.88c-20.2,5.25-36.29-5.85-36.29-5.85c-1.84-18.33,4.83-74.62,18.3-122.6
		c11.22-39.98,28.55-73.07,36.63-84.04c0,0,17.16,0.78,34.4,12.94C1945.02,1402.49,1894.93,1584.63,1874.73,1589.88z"/>
	<g>
		<path d="M1863.64,1595.93c-15.88,0-27.24-7.68-27.83-8.09c-0.91-0.63-1.56-1.55-1.85-2.62c-10.05-37.64,28.76-183.64,56.12-211.11
			c0.92-0.92,2.18-1.4,3.49-1.36c0.76,0.04,18.72,0.99,36.87,13.78c4.97,3.5,5.74,8.24,5.52,16.88c-0.07,2.52-2.13,4.51-4.63,4.51
			c-0.04,0-0.08,0-0.12,0c-2.56-0.07-4.58-2.19-4.51-4.75c0.2-7.81-0.67-8.43-1.59-9.08c-12.5-8.82-25.09-11.25-29.91-11.88
			c-24.94,28.78-60.26,161.87-52.69,198.85c4.09,2.29,16.49,8.1,31.06,4.32c2.3-0.6,5.61-2.87,7.2-5.65c1.26-2.22,4.1-3,6.32-1.73
			c2.22,1.27,3,4.09,1.73,6.32c-3.08,5.41-8.71,8.94-12.92,10.03C1871.6,1595.48,1867.48,1595.93,1863.64,1595.93z"/>
	</g>
	<g>
		<path d="M2033.94,1530.62c-0.39,0-0.79-0.05-1.19-0.16c-2.47-0.66-3.94-3.2-3.29-5.67c1.72-6.47,3.36-13.02,4.88-19.51l-5.75-2.42
			l-19.08-5.07c-2.47-0.66-3.94-3.2-3.29-5.67s3.19-3.95,5.67-3.29l19.39,5.16c0.21,0.06,0.41,0.12,0.61,0.21l9.63,4.07
			c2.07,0.88,3.21,3.11,2.71,5.3c-1.79,7.83-3.75,15.77-5.84,23.61C2037.86,1529.25,2035.99,1530.62,2033.94,1530.62z"/>
	</g>
	<g>
		<path d="M2035.87,1477.25c-0.08,0-0.16,0-0.24-0.01l-37.3-1.92c-2.56-0.13-4.52-2.31-4.39-4.86c0.13-2.55,2.37-4.55,4.86-4.39
			l36.7,1.88l6.88-1.43c9.08-35.87,5.3-56,2.21-57.63c-2.45,0.03-11.04,5.2-19.51,28.91c-0.86,2.41-3.51,3.66-5.92,2.8
			c-2.41-0.86-3.66-3.51-2.8-5.92c7.96-22.26,18.3-35.02,28.37-35.02c0.01,0,0.02,0,0.03,0c2.06,0,5.07,0.71,7.62,4.03
			c7.25,9.44,6.54,36.76-1.76,67.97c-0.45,1.69-1.82,2.99-3.54,3.34l-10.28,2.13C2036.5,1477.22,2036.18,1477.25,2035.87,1477.25z"
			/>
	</g>
	<g>
		<path d="M2023.83,1527.93c-0.39,0-0.8-0.05-1.19-0.16c-2.47-0.66-3.94-3.2-3.29-5.67l0.21-0.78c2.7-10.13,3.81-14.33,6.03-23.91
			c0.58-2.49,3.06-4.04,5.56-3.47c2.49,0.58,4.04,3.06,3.47,5.56c-2.25,9.72-3.38,13.96-6.1,24.19l-0.21,0.78
			C2027.75,1526.56,2025.88,1527.93,2023.83,1527.93z"/>
	</g>
	<g>
		<path d="M2017.57,1550.25c-0.44,0-0.89-0.07-1.34-0.2c-2.45-0.74-3.84-3.32-3.1-5.77c2.81-9.33,3.9-13.46,6.56-23.45l0.29-1.07
			c0.66-2.47,3.21-3.95,5.67-3.29c2.48,0.66,3.95,3.19,3.29,5.67l-0.28,1.07c-2.68,10.09-3.79,14.27-6.64,23.74
			C2021.4,1548.95,2019.56,1550.25,2017.57,1550.25z"/>
	</g>
	<g>
		<g>
			<path d="M1979.16,1597.23c-0.74,0-1.49-0.18-2.18-0.55l-67.51-36.07c-1.27-0.68-2.15-1.92-2.39-3.34
				c-2.7-16.51,4.84-29.29,5.16-29.83c1.13-1.88,3.42-2.7,5.5-1.99l68.79,23.97c2.42,0.84,3.69,3.49,2.85,5.9
				c-0.84,2.42-3.48,3.69-5.9,2.85l-64.86-22.6c-1.5,3.75-3.43,10.31-2.68,17.99l65.41,34.95c2.25,1.21,3.11,4.01,1.9,6.27
				C1982.42,1596.34,1980.81,1597.23,1979.16,1597.23z"/>
		</g>
	</g>
	<g>
		<path d="M1982.9,1641.61c-0.77,0-1.54-0.19-2.26-0.59l-103-57.66c-0.78-0.44-1.42-1.09-1.83-1.88
			c-13.22-25.06,23.72-164.49,48.2-181.94c0.79-0.57,1.81-0.83,2.73-0.86l118.06,1c2.56,0.02,4.61,2.11,4.59,4.67
			c-0.02,2.54-2.09,4.59-4.63,4.59c-0.01,0-0.03,0-0.04,0l-116.43-0.98c-20.86,18.39-54.3,143.78-44.8,168.05l101.69,56.93
			c2.23,1.25,3.03,4.07,1.78,6.31C1986.09,1640.75,1984.52,1641.61,1982.9,1641.61z"/>
	</g>
	<g>
		<path d="M1984.69,1558.37c-0.31,0-0.62-0.03-0.93-0.09c-2.51-0.51-4.13-2.95-3.62-5.46c2.54-12.53,5.6-25.56,9.1-38.72
			c3.95-14.88,8.29-29.27,12.89-42.78c0.82-2.42,3.46-3.73,5.88-2.89c2.42,0.83,3.72,3.46,2.89,5.88
			c-4.53,13.31-8.8,27.5-12.7,42.17c-3.45,12.98-6.47,25.83-8.97,38.18C1988.78,1556.86,1986.85,1558.37,1984.69,1558.37z"/>
	</g>
	<g>
		<g>
			<path d="M2003.83,1522.61c-0.39,0-0.79-0.05-1.19-0.16c-2.47-0.66-3.94-3.2-3.29-5.67c3.21-12.05,6.54-23.75,9.91-34.8
				l-4.97-4.88l-70.22-13.09c-2.29-0.43-3.91-2.49-3.78-4.82c1.21-21.05,10.18-28.17,11.2-28.91c0.83-0.6,1.84-0.89,2.86-0.89
				l76.51,2.22c2.56,0.08,4.57,2.21,4.5,4.77c-0.08,2.56-2.19,4.45-4.77,4.5l-74.54-2.16c-1.6,1.92-4.91,6.96-6.15,16.96
				l67.47,12.58c0.91,0.17,1.74,0.6,2.4,1.25l7.99,7.84c1.24,1.22,1.69,3.02,1.18,4.67c-3.62,11.72-7.2,24.22-10.64,37.14
				C2007.75,1521.24,2005.88,1522.61,2003.83,1522.61z"/>
		</g>
	</g>
	<g>
		<path d="M2035.87,1477.25c-0.31,0-0.62-0.03-0.94-0.1c-2.5-0.51-4.12-2.96-3.6-5.47c4.18-20.4,5.85-33.22,6.31-40.62
			c-2.02,4.07-4.82,10.48-8.5,20.5c-0.71,1.93-2.58,3.17-4.67,3.02l-68.38-4.74l-5.52,13.5c-0.97,2.37-3.68,3.49-6.04,2.54
			c-2.37-0.97-3.5-3.68-2.53-6.04l6.79-16.59c0.76-1.85,2.58-3.03,4.61-2.87l68.27,4.73c11.05-29.31,15.68-30.78,20.11-29.59
			c4.22,1.12,10,2.66-1.37,58.04C2039.95,1475.74,2038.03,1477.25,2035.87,1477.25z"/>
	</g>
	<g>
		<path d="M2027.95,1551.5c-0.18,0-0.37-0.01-0.56-0.03l-10.38-1.25c-0.21-0.03-0.43-0.07-0.63-0.12l-19.39-5.16
			c-2.47-0.66-3.94-3.2-3.29-5.67c0.66-2.47,3.19-3.95,5.67-3.29l19.08,5.07l6.19,0.75c1.88-6.31,3.71-12.8,5.45-19.36
			c0.66-2.47,3.19-3.95,5.67-3.29c2.47,0.66,3.94,3.2,3.29,5.67c-2.12,7.95-4.35,15.83-6.65,23.39
			C2031.78,1550.18,2029.97,1551.5,2027.95,1551.5z"/>
	</g>
	<g>
		<path d="M1986.52,1642.56c-1.48,0-2.92-0.37-4.22-1.11c-7.33-4.17-13.06-20.74-8.33-47.3c0.45-2.52,2.85-4.21,5.37-3.75
			c2.52,0.45,4.2,2.85,3.75,5.37c-4.21,23.65,1.06,35.61,3.59,37.49c3.69-0.99,15.6-17.22,25.69-53.83l-5.37-4.75l-32.32-18.98
			c-2.2-1.29-2.94-4.13-1.65-6.34c1.3-2.2,4.14-2.93,6.34-1.65l32.7,19.21c0.26,0.15,0.5,0.32,0.72,0.52l7.87,6.95
			c1.31,1.16,1.86,2.96,1.41,4.66c-6.82,25.64-19.22,57.45-31.75,62.7C1989.06,1642.3,1987.78,1642.56,1986.52,1642.56z
			 M1986.88,1633.39h0.03H1986.88z"/>
	</g>
	<g>
		<g>
			<path d="M1989.63,1626.21c-0.42,0-0.85-0.05-1.26-0.16c-8.92-2.38-6.12-27.97-4.58-38.44l-61.41-32.91
				c-1.7-0.91-2.66-2.78-2.4-4.69l1.93-14.61c0.34-2.53,2.68-4.32,5.2-3.98c2.54,0.34,4.32,2.66,3.99,5.2l-1.51,11.43l61.48,32.95
				c1.75,0.94,2.71,2.89,2.38,4.85c-1.65,9.78-2.11,17.82-2,23.5c4.92-10.78,11.89-28.81,13.73-39.24c0.44-2.52,2.84-4.21,5.37-3.76
				c2.52,0.44,4.2,2.85,3.76,5.37c-2.34,13.31-16.18,50-21.9,53.66C1991.53,1625.93,1990.58,1626.21,1989.63,1626.21z"/>
		</g>
		<g>
			<path d="M2023.83,1527.93c-0.4,0-0.8-0.05-1.2-0.16c-2.47-0.66-3.94-3.2-3.28-5.67l0.62-2.34c0.66-2.47,3.19-3.95,5.67-3.29
				c2.47,0.66,3.94,3.2,3.29,5.67l-0.62,2.35C2027.75,1526.56,2025.88,1527.93,2023.83,1527.93z"/>
		</g>
		<g>
			<path d="M1984.99,1558.44c-2.46,0-4.51-1.93-4.63-4.42c-0.12-2.56,1.86-4.72,4.41-4.84l6.67-0.31
				c2.51-11.03,5.38-22.6,8.52-34.43c0.66-2.47,3.21-3.95,5.67-3.29c2.48,0.66,3.95,3.19,3.29,5.67
				c-3.44,12.95-6.54,25.58-9.21,37.52c-0.46,2.04-2.22,3.52-4.31,3.62l-10.2,0.47C1985.14,1558.44,1985.06,1558.44,1984.99,1558.44
				z"/>
		</g>
	</g>
	<g>
		<path d="M1864.98,1581.32c-2.2,0-4.15-1.57-4.55-3.81c-0.26-1.47-6.18-36.73,15.53-106.07c21.61-68.99,38.42-78.7,40.26-79.58
			c2.32-1.1,5.08-0.12,6.18,2.19c1.08,2.25,0.17,4.94-2.03,6.09c-0.61,0.39-15.7,10.63-35.57,74.07
			c-20.93,66.85-15.31,101.34-15.25,101.68c0.43,2.52-1.25,4.92-3.76,5.36C1865.52,1581.29,1865.25,1581.32,1864.98,1581.32z"/>
	</g>
</g>
<g>
	<g>
		<path class="st1" d="M1013.8,1162.91l-37.82,18.08c36.12,26.78,143.59,256.72,139.32,291.44l37.82-18.08
			C1158.2,1410.72,1060.12,1200.44,1013.8,1162.91z"/>
		<polygon class="st1" points="972.54,1249.52 942.83,1257.22 1035.16,1450.36 1061,1434.56 1113.33,1471.85 1085.98,1308.76 
			976.57,1182.24 		"/>
	</g>
	<g>
		<path d="M1115.3,1477.06c-0.95,0-1.9-0.29-2.7-0.87c-1.37-0.99-2.1-2.65-1.89-4.33c1.8-14.65-20.96-76.11-54.11-146.15
			c-34.54-72.97-68.05-129.64-83.38-141c-1.3-0.97-2.01-2.55-1.85-4.16c0.16-1.62,1.15-3.04,2.61-3.74l37.82-18.08
			c1.61-0.77,3.52-0.55,4.91,0.58c25.79,20.9,63.51,88.63,90.21,145.05c25.29,53.46,53.78,124.95,50.8,150.53
			c-0.18,1.58-1.17,2.96-2.6,3.64l-37.82,18.08C1116.67,1476.92,1115.98,1477.06,1115.3,1477.06z M984.21,1182.19
			c21.06,21.75,54.75,84.62,80.76,139.56c24.21,51.14,51.33,115.9,54.73,143.44l28.99-13.86c0.45-21.35-19.3-77.84-50.14-143.02
			c-31.84-67.28-64.98-121.46-85.47-139.93L984.21,1182.19z"/>
	</g>
	<g>
		<path d="M1113.32,1476.48c-0.93,0-1.87-0.28-2.68-0.86l-49.43-35.22c-2.08-1.49-2.57-4.38-1.08-6.46
			c1.48-2.08,4.38-2.57,6.46-1.09l49.43,35.22c2.08,1.49,2.57,4.38,1.08,6.46C1116.2,1475.8,1114.77,1476.48,1113.32,1476.48z"/>
	</g>
	<g>
		<path d="M971.62,1248.09c-0.12,0-0.25,0-0.38-0.02c-2.55-0.21-4.45-2.44-4.24-4.99l4.96-61.22c0.21-2.55,2.45-4.5,4.99-4.24
			c2.55,0.21,4.45,2.44,4.24,4.99l-4.96,61.22C976.04,1246.26,974.01,1248.09,971.62,1248.09z"/>
	</g>
	<g>
		<path d="M1035.16,1455c-1.73,0-3.39-0.97-4.18-2.64c-1.1-2.31-0.13-5.08,2.18-6.18l30.6-14.63
			c-0.94-35.92-58.45-155.91-88.55-184.68l-30.38,14.53c-2.31,1.11-5.07,0.12-6.18-2.18c-1.1-2.31-0.13-5.08,2.18-6.18l33.18-15.86
			c1.64-0.78,3.59-0.54,4.98,0.63c33.14,27.88,96.38,160.43,93.97,196.98c-0.11,1.67-1.11,3.15-2.62,3.88l-33.18,15.86
			C1036.51,1454.85,1035.83,1455,1035.16,1455z"/>
	</g>
	<path d="M938.45,1255.31c10.08-6.87,35.53,37.21,61.03,90.55c25.5,53.33,40.66,106.17,35.73,108.38
		c-9.07,4.07-29.54-42.9-55.04-96.23C954.68,1304.68,933.99,1258.35,938.45,1255.31z"/>
	<path class="st1" d="M860.7,1464.31c0,0,73.99-62.1,159.39-30.37c-4.75-27.43-51.14-129.57-73.95-154.69
		c-28.93,86.39-123.72,104.98-123.72,104.98L860.7,1464.31z"/>
	<g>
		<path d="M860.7,1468.94c-1.32,0-2.64-0.56-3.55-1.66c-1.64-1.96-1.39-4.88,0.57-6.52c0.74-0.62,72.39-59.61,155.89-33.91
			c-9.2-31.68-44.19-108.77-65.94-138.33c-32.36,81.32-123.42,100.07-124.37,100.25c-2.51,0.49-4.94-1.14-5.44-3.65
			c-0.49-2.51,1.14-4.94,3.65-5.44c0.92-0.18,92.52-19.17,120.22-101.91c0.52-1.56,1.83-2.72,3.44-3.06
			c1.61-0.33,3.28,0.2,4.38,1.42c24.17,26.61,70.36,129.67,75.09,157.02c0.28,1.63-0.33,3.29-1.6,4.35
			c-1.28,1.06-3.02,1.36-4.57,0.78c-81.8-30.4-154.09,28.97-154.81,29.57C862.81,1468.59,861.75,1468.94,860.7,1468.94z"/>
	</g>
	<path class="st1" d="M805.87,1369.73c21.26,14.77,57.72,90.44,55.65,116.4c0,0-8.57,14.36-32.51,15.54s-69.44-95.69-55.65-116.4
		C782.92,1370.92,805.87,1369.73,805.87,1369.73z"/>
	<g>
		<path d="M828.58,1506.31c-14.42,0-29.87-23.39-37.87-37.48c-13.98-24.63-32.1-69.8-21.21-86.14c10.73-16.1,35.09-17.55,36.12-17.6
			c1.03-0.08,2.04,0.23,2.88,0.82c22.63,15.71,59.79,93.47,57.62,120.57c-0.06,0.71-0.28,1.39-0.64,2
			c-0.4,0.67-10.14,16.5-36.26,17.79C829.02,1506.31,828.8,1506.31,828.58,1506.31z M804.53,1374.5
			c-5.01,0.57-20.51,3.13-27.31,13.33c-6.27,9.42,3.8,45.13,21.56,76.43c13.06,23.02,24.38,32.98,30,32.78
			c17.97-0.89,26.08-9.72,28.19-12.47C857.65,1460.04,824.37,1390.29,804.53,1374.5z"/>
	</g>
	<path class="st1" d="M707.55,1403.94c37.42-17.89,78.7-0.36,96.59,37.06c17.89,37.42,5.6,80.55-31.81,98.44
		c-37.42,17.89-82.25,2.06-100.14-35.36C654.3,1466.66,670.13,1421.83,707.55,1403.94z"/>
	<g>
		<path d="M740.06,1551.41c-29.77,0-58.38-16.73-72.05-45.33c-9.19-19.21-10.34-40.85-3.25-60.93c7.09-20.08,21.58-36.2,40.79-45.38
			c19.05-9.11,40.12-9.95,59.32-2.34c18.75,7.42,34.18,22.19,43.44,41.58c19.6,41.01,4.99,85.98-33.99,104.62
			C763.26,1548.91,751.57,1551.41,740.06,1551.41z M738.02,1401.54c-9.64,0-19.32,2.2-28.47,6.58c0,0,0,0,0,0
			c-16.98,8.12-29.78,22.36-36.05,40.11c-6.27,17.75-5.25,36.87,2.87,53.85c16.76,35.05,58.9,49.94,93.96,33.18
			c34.22-16.36,46.96-56.03,29.63-92.27c-8.26-17.28-21.93-30.4-38.5-36.96C753.88,1403.04,745.96,1401.54,738.02,1401.54z
			 M707.55,1403.94h0.03H707.55z"/>
	</g>
	<g>
		<path d="M829.6,1488.78c-2.56,0-4.63-2.07-4.63-4.63c0-51.81-42.29-86.47-42.71-86.8c-2.03-1.55-2.42-4.46-0.87-6.49
			c1.55-2.03,4.46-2.42,6.49-0.86c0.46,0.36,46.35,37.04,46.35,94.16C834.23,1486.7,832.16,1488.78,829.6,1488.78z"/>
	</g>
</g>
<g>
	<g>
		<path class="st3" d="M1318.08,1068.4c0,0-31.29,0.44-53.99-18.15c0,0,16.88,39.46,9.55,41.23c-7.33,1.77-20.27-8.49-20.27-8.49
			s23.16,28.27,10.72,29.53c-12.44,1.26-93.07-21.03-93.07-21.03s66.2,44.28,63.89,57.48c-2.31,13.2-49.65,1.65-49.65,1.65
			l23.89,22.91l-55.82,8.72c0,0,52.89,0.74,57.28,13.78c4.4,13.05-97.27,45.34-97.27,45.34s81.14-5.82,87.01,0
			c5.86,5.82-52.78,37.89-52.78,37.89s68.48-23.27,78.95-21.81c10.48,1.46-51.1,79.17-51.1,79.17s103.59-75.51,112.64-69.28
			c9.05,6.23-53.15,144.81-53.15,144.81s66.05-138.94,76.58-132.89c10.54,6.05,13.5,23.64,13.5,23.64s6.59-20.9,20.87-23.64
			c14.29-2.75,12.09,114.41,12.09,114.41s9.53-70.17,13.93-78.27c4.4-8.1,29.49,22.69,29.49,22.69s4.5-59.02,16.09-58.83
			c11.6,0.18,22.36,14.69,22.36,14.69s0.96-22.57,12.69-26.6c11.73-4.03,35.19,17.96,35.19,17.96s-14.66-41.92,8.79-42.22
			c23.46-0.3,113.66,8.5,113.66,8.5s-93.14-27.85-100.47-36.65c-7.33-8.8,105.65,1.47,105.65,1.47s-90.99-15.54-96.85-34.16
			c-5.86-18.62,88.34-48.42,88.34-48.42s-81.01,10.74-89.81,9.27c-8.8-1.47,7.33-30.58,7.33-30.58s-30.79,17.39-41.05,15.19
			c-10.26-2.2,27.85-61.97,27.85-61.97s-42.51,42.36-53.73,36.31c-16.33-8.81-17.6-51.79-17.6-51.79s-11.87,22.68-30.38,26.24
			L1318.08,1068.4z"/>
		<path d="M1234.9,1416.78c-0.65,0-1.31-0.14-1.94-0.43c-2.3-1.07-3.32-3.79-2.28-6.1c26.17-58.3,52.15-123.15,53.63-138.25
			c-13.19,3.94-62.57,36.58-106.17,68.36c-1.87,1.36-4.47,1.14-6.07-0.54c-1.61-1.67-1.73-4.27-0.29-6.09
			c22.21-28.03,45.28-60.08,50.3-71.45c-11.76,1.8-44.16,11.54-73.03,21.35c-2.27,0.78-4.76-0.32-5.73-2.52
			c-0.97-2.2-0.09-4.77,2.02-5.93c19.61-10.72,41.57-24.38,48.7-31.02c-11.94-1.64-47.9-0.51-80.38,1.81
			c-2.38,0.2-4.44-1.44-4.88-3.75c-0.44-2.3,0.91-4.58,3.15-5.29c42.16-13.39,89.33-32.25,94-40.02c-3.29-5.07-27.2-9.7-52.68-10.06
			c-2.41-0.03-4.39-1.91-4.56-4.31c-0.17-2.4,1.53-4.53,3.91-4.9l46.58-7.28l-17.13-16.43c-1.51-1.45-1.86-3.73-0.85-5.57
			s3.12-2.77,5.16-2.27c14.39,3.5,37.36,6.67,43.38,2.74c0.56-0.37,0.6-0.58,0.62-0.69c-0.04-6.17-28.38-30.41-61.9-52.83
			c-1.89-1.27-2.58-3.71-1.64-5.78c0.95-2.07,3.26-3.14,5.45-2.53c30.28,8.37,81.03,21.17,90.86,20.92
			c-0.52-3.73-6.44-13.61-13.32-22.02c-1.5-1.83-1.37-4.49,0.28-6.18c1.66-1.69,4.32-1.85,6.18-0.38c4.05,3.2,10.75,7.14,14.66,7.66
			c-0.09-5.68-5.45-21.77-11.08-34.94c-0.84-1.96-0.23-4.24,1.48-5.52c1.7-1.29,4.06-1.24,5.72,0.12c21.15,17.31,50.69,17.1,51,17.1
			c2.46,0.07,4.66,2.01,4.7,4.57c0.04,2.56-2.01,4.66-4.57,4.7c-1.1,0-23.27,0.16-44.33-10.87c4.34,11.88,7.95,24.96,5.29,30.27
			c-0.92,1.83-2.47,3.09-4.38,3.55c-2.11,0.51-4.41,0.38-6.73-0.14c3.37,6.08,5.45,12.16,3.73,16.33c-0.68,1.64-2.52,4.48-7.17,4.95
			c-8.59,0.89-44.14-7.8-69.35-14.36c21.53,15.81,46.11,36.43,44.26,47c-0.49,2.8-2.11,5.16-4.67,6.84
			c-7.2,4.72-22.71,3.55-34.89,1.65l12.44,11.93c1.27,1.22,1.74,3.05,1.21,4.73c-0.53,1.68-1.96,2.91-3.7,3.19l-19.44,3.04
			c11.85,2.43,22.26,6.53,24.58,13.41c0.46,1.37,0.74,3.55-0.58,6.15c-5.04,9.95-39.55,24.09-67.12,34.04
			c27.45-1.17,52.01-0.92,56.31,3.35c1.37,1.36,1.99,3.26,1.71,5.21c-0.64,4.5-8.93,11.48-20.22,19.04
			c18.02-5.42,36.35-10.28,42.06-9.47c2.15,0.3,3.92,1.67,4.71,3.65c1.28,3.2,3.04,7.59-25.37,46.76
			c-2.88,3.96-5.78,7.89-8.56,11.61c8.36-5.86,18.05-12.55,27.83-19.1c56.67-37.94,61.44-34.65,64.92-32.27
			c3.33,2.29,7.02,4.83-8.04,45.79c10.95-18.79,20.69-32.89,26.03-34.56c1.79-0.56,3.61-0.39,5.12,0.48
			c5.83,3.35,9.65,9.39,12.06,14.9c3.94-6.51,10.19-13.71,19.13-15.43c2.19-0.43,4.39,0.19,6.2,1.7c6.8,5.72,9.71,32.87,10.87,60.36
			c2.07-11.33,4.14-20.62,5.75-23.59c1.17-2.16,3.22-3.52,5.63-3.75c6.42-0.56,16.3,8.51,24.29,17.3
			c2.68-25.87,8.22-52.12,19.68-52.12c0.04,0,0.08,0,0.12,0c7.48,0.12,14.27,4.68,19.06,9c1.75-7.81,5.67-17.66,14.42-20.67
			c8.43-2.89,20.03,3.49,28.67,9.75c-1.61-9.04-2.14-20.3,2.83-27.4c2.15-3.07,6.31-6.76,13.93-6.85
			c12.66-0.19,44.1,2.25,70.78,4.55c-27.06-8.88-56.39-19.48-61.08-25.11c-1.54-1.85-1.85-4.25-0.79-6.26
			c1.22-2.32,3.46-6.54,50.31-4.28c-20.37-6.27-38.63-14.37-41.58-23.73c-4.28-13.6,23.45-28.6,51.45-39.97
			c-21.75,2.54-44.35,4.82-49.25,4.01c-2.49-0.41-4.46-1.89-5.55-4.14c-2.21-4.58,0.02-12.68,3.26-20.38
			c-10.47,5.04-24.35,10.64-31.64,9.08c-2.16-0.46-3.9-1.92-4.76-3.98c-2.53-6.06,4.66-22.04,13.54-38.09
			c-13.52,10.93-28.25,20.07-35.88,15.96c-12.42-6.7-17.15-28.1-18.96-42.46c-5.8,7.06-14.69,15.21-25.95,17.38
			c-2.51,0.48-4.94-1.16-5.42-3.67c-0.48-2.51,1.16-4.94,3.67-5.42c16.06-3.09,27.04-23.63,27.15-23.84
			c0.98-1.86,3.09-2.83,5.14-2.36c2.05,0.47,3.52,2.27,3.59,4.37c0.47,15.59,5.01,42.37,15.17,47.85
			c4.89,1.83,27.42-14.76,48.26-35.52c1.68-1.66,4.34-1.81,6.17-0.33c1.84,1.48,2.27,4.11,1,6.1c-13.5,21.17-27.5,46.85-28.81,55.04
			c7.51-0.5,24.8-8.56,35.82-14.79c1.81-1.02,4.07-0.72,5.54,0.74c1.47,1.46,1.8,3.72,0.79,5.53c-5.27,9.53-9.35,19.98-9.42,23.87
			c9.77,0.24,57.71-5.48,87.24-9.39c2.39-0.31,4.61,1.24,5.13,3.59c0.52,2.34-0.83,4.7-3.12,5.42c-0.23,0.08-23.65,7.51-45.99,17.09
			c-41.25,17.68-39.35,25.44-39.33,25.52c3.1,9.83,50.79,23.74,93.21,30.98c2.45,0.42,4.13,2.7,3.81,5.16
			c-0.32,2.47-2.53,4.22-5.01,4.02c-36.72-3.33-76.85-5.65-94.28-4.89c16.16,7.27,54.9,20.27,90.84,31.02
			c2.28,0.68,3.67,2.99,3.22,5.33c-0.46,2.34-2.59,3.96-5,3.72c-0.9-0.09-90.25-8.82-113.15-8.48c-4,0.05-5.6,1.68-6.46,2.9
			c-5.24,7.48-0.2,26.93,1.97,33.15c0.7,2.01-0.06,4.25-1.84,5.41c-1.78,1.16-4.14,0.96-5.69-0.5c-8.65-8.1-24.37-19.08-30.52-16.96
			c-7.09,2.44-9.34,17.38-9.56,22.43c-0.09,1.96-1.4,3.65-3.27,4.22c-1.87,0.57-3.91-0.09-5.08-1.67
			c-2.59-3.47-10.9-12.46-18.41-12.81c-4.25,2.9-9.69,28.13-11.7,54.54c-0.15,1.89-1.43,3.5-3.23,4.07
			c-1.8,0.57-3.78-0.02-4.97-1.49c-8.41-10.32-18.18-19.78-22.43-21.91c-3.04,9.2-9.16,48.31-12.81,75.19
			c-0.33,2.43-2.5,4.19-4.95,4c-2.45-0.19-4.32-2.25-4.28-4.71c0.89-47.33-1.78-101.55-7.61-109.53
			c-8.87,2.56-14.74,15.35-16.3,20.25c-0.65,2.04-2.59,3.4-4.74,3.22c-2.13-0.15-3.89-1.74-4.24-3.85
			c-0.69-4.01-3.74-14.75-9.85-19.46c-9.86,7.93-43.47,71.01-71.48,129.93C1238.29,1415.8,1236.63,1416.78,1234.9,1416.78z"/>
	</g>
	<path class="st4" d="M1439.81,1133.5v-23.21H1439c0.48-0.73,0.82-1.46,0.82-2.2c0-8.51-32.96-16.61-75.88-16.61
		c-42.92,0-75.88,8.1-75.88,16.61c0,0.74,0.33,1.47,0.82,2.2h-0.82v23.21c-21.34,3.88-34.68,9.36-34.68,15.45v77.7
		c24.3,22.17,202.36,21.62,221.13,0v-77.7C1474.5,1142.87,1461.16,1137.38,1439.81,1133.5z"/>
	<path d="M1443.71,1108.09c0,8.52-36.85,16.61-79.77,16.61c-42.92,0-80.23-8.1-80.23-16.61c0-8.51,37.31-16.61,80.23-16.61
		C1406.85,1091.48,1443.71,1099.58,1443.71,1108.09z"/>
	<g>
		<path d="M1234.9,1416.78c-0.65,0-1.31-0.14-1.94-0.43c-2.3-1.07-3.32-3.79-2.28-6.1c26.17-58.3,52.15-123.15,53.63-138.25
			c-13.19,3.94-62.57,36.58-106.17,68.36c-1.87,1.36-4.47,1.14-6.07-0.54c-1.61-1.67-1.73-4.27-0.29-6.09
			c22.21-28.03,45.28-60.08,50.3-71.45c-11.76,1.8-44.16,11.54-73.03,21.35c-2.27,0.78-4.76-0.32-5.73-2.52
			c-0.97-2.2-0.09-4.77,2.02-5.93c19.61-10.72,41.57-24.38,48.7-31.02c-11.94-1.64-47.9-0.51-80.38,1.81
			c-2.38,0.2-4.44-1.44-4.88-3.75c-0.44-2.3,0.91-4.58,3.15-5.29c42.16-13.39,89.33-32.25,94-40.02c-3.29-5.07-27.2-9.7-52.68-10.06
			c-2.41-0.03-4.39-1.91-4.56-4.31c-0.17-2.4,1.53-4.53,3.91-4.9l46.58-7.28l-17.13-16.43c-1.51-1.45-1.86-3.73-0.85-5.57
			s3.12-2.77,5.16-2.27c14.39,3.5,37.36,6.67,43.38,2.74c0.56-0.37,0.6-0.58,0.62-0.69c-0.04-6.17-28.38-30.41-61.9-52.83
			c-1.89-1.27-2.58-3.71-1.64-5.78c0.95-2.07,3.26-3.14,5.45-2.53c30.28,8.37,81.03,21.17,90.86,20.92
			c-0.52-3.73-6.44-13.61-13.32-22.02c-1.5-1.83-1.37-4.49,0.28-6.18c1.66-1.69,4.32-1.85,6.18-0.38c4.05,3.2,10.75,7.14,14.66,7.66
			c-0.09-5.68-5.45-21.77-11.08-34.94c-0.84-1.96-0.23-4.24,1.48-5.52c1.7-1.29,4.06-1.24,5.72,0.12c21.15,17.31,50.69,17.1,51,17.1
			c2.46,0.07,4.66,2.01,4.7,4.57c0.04,2.56-2.01,4.66-4.57,4.7c-1.1,0-23.27,0.16-44.33-10.87c4.34,11.88,7.95,24.96,5.29,30.27
			c-0.92,1.83-2.47,3.09-4.38,3.55c-2.11,0.51-4.41,0.38-6.73-0.14c3.37,6.08,5.45,12.16,3.73,16.33c-0.68,1.64-2.52,4.48-7.17,4.95
			c-8.59,0.89-44.14-7.8-69.35-14.36c21.53,15.81,46.11,36.43,44.26,47c-0.49,2.8-2.11,5.16-4.67,6.84
			c-7.2,4.72-22.71,3.55-34.89,1.65l12.44,11.93c1.27,1.22,1.74,3.05,1.21,4.73c-0.53,1.68-1.96,2.91-3.7,3.19l-19.44,3.04
			c11.85,2.43,22.26,6.53,24.58,13.41c0.46,1.37,0.74,3.55-0.58,6.15c-5.04,9.95-39.55,24.09-67.12,34.04
			c27.45-1.17,52.01-0.92,56.31,3.35c1.37,1.36,1.99,3.26,1.71,5.21c-0.64,4.5-8.93,11.48-20.22,19.04
			c18.02-5.42,36.35-10.28,42.06-9.47c2.15,0.3,3.92,1.67,4.71,3.65c1.28,3.2,3.04,7.59-25.37,46.76
			c-2.88,3.96-5.78,7.89-8.56,11.61c8.36-5.86,18.05-12.55,27.83-19.1c56.67-37.94,61.44-34.65,64.92-32.27
			c3.33,2.29,7.02,4.83-8.04,45.79c10.95-18.79,20.69-32.89,26.03-34.56c1.79-0.56,3.61-0.39,5.12,0.48
			c5.83,3.35,9.65,9.39,12.06,14.9c3.94-6.51,10.19-13.71,19.13-15.43c2.19-0.43,4.39,0.19,6.2,1.7c6.8,5.72,9.71,32.87,10.87,60.36
			c2.07-11.33,4.14-20.62,5.75-23.59c1.17-2.16,3.22-3.52,5.63-3.75c6.42-0.56,16.3,8.51,24.29,17.3
			c2.68-25.87,8.22-52.12,19.68-52.12c0.04,0,0.08,0,0.12,0c7.48,0.12,14.27,4.68,19.06,9c1.75-7.81,5.67-17.66,14.42-20.67
			c8.43-2.89,20.03,3.49,28.67,9.75c-1.61-9.04-2.14-20.3,2.83-27.4c2.15-3.07,6.31-6.76,13.93-6.85
			c12.66-0.19,44.1,2.25,70.78,4.55c-27.06-8.88-56.39-19.48-61.08-25.11c-1.54-1.85-1.85-4.25-0.79-6.26
			c1.22-2.32,3.46-6.54,50.31-4.28c-20.37-6.27-38.63-14.37-41.58-23.73c-4.28-13.6,23.45-28.6,51.45-39.97
			c-21.75,2.54-44.35,4.82-49.25,4.01c-2.49-0.41-4.46-1.89-5.55-4.14c-2.21-4.58,0.02-12.68,3.26-20.38
			c-10.47,5.04-24.35,10.64-31.64,9.08c-2.16-0.46-3.9-1.92-4.76-3.98c-2.53-6.06,4.66-22.04,13.54-38.09
			c-13.52,10.93-28.25,20.07-35.88,15.96c-12.42-6.7-17.15-28.1-18.96-42.46c-5.8,7.06-14.69,15.21-25.95,17.38
			c-2.51,0.48-4.94-1.16-5.42-3.67c-0.48-2.51,1.16-4.94,3.67-5.42c16.06-3.09,27.04-23.63,27.15-23.84
			c0.98-1.86,3.09-2.83,5.14-2.36c2.05,0.47,3.52,2.27,3.59,4.37c0.47,15.59,5.01,42.37,15.17,47.85
			c4.89,1.83,27.42-14.76,48.26-35.52c1.68-1.66,4.34-1.81,6.17-0.33c1.84,1.48,2.27,4.11,1,6.1c-13.5,21.17-27.5,46.85-28.81,55.04
			c7.51-0.5,24.8-8.56,35.82-14.79c1.81-1.02,4.07-0.72,5.54,0.74c1.47,1.46,1.8,3.72,0.79,5.53c-5.27,9.53-9.35,19.98-9.42,23.87
			c9.77,0.24,57.71-5.48,87.24-9.39c2.39-0.31,4.61,1.24,5.13,3.59c0.52,2.34-0.83,4.7-3.12,5.42c-0.23,0.08-23.65,7.51-45.99,17.09
			c-41.25,17.68-39.35,25.44-39.33,25.52c3.1,9.83,50.79,23.74,93.21,30.98c2.45,0.42,4.13,2.7,3.81,5.16
			c-0.32,2.47-2.53,4.22-5.01,4.02c-36.72-3.33-76.85-5.65-94.28-4.89c16.16,7.27,54.9,20.27,90.84,31.02
			c2.28,0.68,3.67,2.99,3.22,5.33c-0.46,2.34-2.59,3.96-5,3.72c-0.9-0.09-90.25-8.82-113.15-8.48c-4,0.05-5.6,1.68-6.46,2.9
			c-5.24,7.48-0.2,26.93,1.97,33.15c0.7,2.01-0.06,4.25-1.84,5.41c-1.78,1.16-4.14,0.96-5.69-0.5c-8.65-8.1-24.37-19.08-30.52-16.96
			c-7.09,2.44-9.34,17.38-9.56,22.43c-0.09,1.96-1.4,3.65-3.27,4.22c-1.87,0.57-3.91-0.09-5.08-1.67
			c-2.59-3.47-10.9-12.46-18.41-12.81c-4.25,2.9-9.69,28.13-11.7,54.54c-0.15,1.89-1.43,3.5-3.23,4.07
			c-1.8,0.57-3.78-0.02-4.97-1.49c-8.41-10.32-18.18-19.78-22.43-21.91c-3.04,9.2-9.16,48.31-12.81,75.19
			c-0.33,2.43-2.5,4.19-4.95,4c-2.45-0.19-4.32-2.25-4.28-4.71c0.89-47.33-1.78-101.55-7.61-109.53
			c-8.87,2.56-14.74,15.35-16.3,20.25c-0.65,2.04-2.59,3.4-4.74,3.22c-2.13-0.15-3.89-1.74-4.24-3.85
			c-0.69-4.01-3.74-14.75-9.85-19.46c-9.86,7.93-43.47,71.01-71.48,129.93C1238.29,1415.8,1236.63,1416.78,1234.9,1416.78z"/>
	</g>
	<path class="st4" d="M1402.08,915.91h-37.15h-2h-37.15c0,0,6.54,154.31-18.39,190.04c15.51,8.19,96.88,9.28,113.07,0
		C1395.54,1070.22,1402.08,915.91,1402.08,915.91z"/>
	<g>
		<path d="M1366.46,1117.25c-26.05,0-52.58-2.64-61.22-7.21c-1.17-0.62-2.03-1.71-2.34-3c-0.31-1.29-0.06-2.65,0.7-3.74
			c23.75-34.05,17.62-185.67,17.56-187.2c-0.05-1.26,0.41-2.49,1.29-3.4c0.87-0.91,2.08-1.43,3.34-1.43h76.29
			c1.26,0,2.47,0.52,3.34,1.43c0.87,0.91,1.34,2.14,1.28,3.4c-0.07,1.53-6.19,153.15,17.56,187.2c0.74,1.07,1,2.39,0.72,3.66
			c-0.29,1.27-1.09,2.36-2.22,3.01C1413.98,1115.01,1390.42,1117.25,1366.46,1117.25z M1314.19,1103.53
			c20,5.35,79.2,6.37,99.58,0.19c-20.13-39.43-17.37-157.34-16.5-183.18h-66.68C1331.46,946.33,1334.22,1063.91,1314.19,1103.53z"/>
	</g>
	<path class="st4" d="M1363.93,876.34c-40.52,0-71.65,7.64-71.65,15.68v27.49c25.52,11,112.39,13.19,143.29,0v-27.49
		C1435.58,883.98,1404.46,876.34,1363.93,876.34z"/>
	<path d="M1439.58,892.02c0,8.04-35.13,10.72-75.65,10.72c-40.52,0-76.04-2.68-76.04-10.72c0-8.04,35.52-15.68,76.04-15.68
		C1404.46,876.34,1439.58,882.68,1439.58,892.02z"/>
	<g>
		<path d="M1365.49,933.27c-30.5,0-60.95-3.43-75.04-9.5c-1.7-0.73-2.8-2.4-2.8-4.25v-27.49c0-2.56,2.07-4.63,4.63-4.63
			s4.63,2.07,4.63,4.63v24.32c27.25,9.55,103.33,11.02,134.03,0.01v-24.33c0-2.56,2.07-4.63,4.63-4.63s4.63,2.07,4.63,4.63v27.49
			c0,1.86-1.11,3.53-2.81,4.26C1422.07,930.32,1393.76,933.27,1365.49,933.27z"/>
	</g>
	<path class="st4" d="M1412.37,887.79c-6.87,6.06-94.56,5.23-97.31,0c-4.77-9.8,0.02-32.78,10.63-37.95h74.71
		C1414.12,854.27,1418.26,880.21,1412.37,887.79z"/>
	<g>
		<path d="M1365.85,896.69c-19.33,0-38.68-1.07-46.66-2.54c-4.12-0.76-6.93-1.73-8.23-4.2c-5.95-12.24-0.13-38.02,12.7-44.27
			c0.63-0.31,1.33-0.47,2.03-0.47h74.71c0.48,0,0.97,0.07,1.42,0.22c7.15,2.31,12.76,9,15.79,18.84c2.58,8.4,3.19,20.23-1.58,26.36
			c-0.18,0.23-0.38,0.44-0.59,0.63C1410.92,895.23,1388.39,896.69,1365.85,896.69z M1412.37,887.79h0.03H1412.37z M1318.75,884.62
			c11.55,3.88,80.83,3.73,90.34-0.27c1.42-2.71,2.04-9.63-0.34-17.35c-1.98-6.43-5.3-10.95-9.17-12.53h-72.69
			C1319.79,859.05,1315.9,876.41,1318.75,884.62z"/>
	</g>
	<path class="st5" d="M1256.78,680.21c-15.39-13.01-35.38,20.12-30.15,40.65c5.23,20.52,63.12,115.92,85.92,74.16l37.45-86.45
		l-29.44-46.61L1256.78,680.21z"/>
	<path class="st4" d="M1430.78,747.25c-24.82,9.53-113.15,8.8-133.69,0c0,0,0.41,109.3,63.96,112.89h6.1
		C1430.69,856.55,1430.78,747.25,1430.78,747.25z"/>
	<path class="st4" d="M1297.09,747.25c0,0,21.86-28.59,67.38-27.86c45.52,0.73,66.31,27.86,66.31,27.86l-72.84,12.46L1297.09,747.25
		z"/>
	<path class="st5" d="M1582.53,448.54c-28.12,26.08-196.52,101.09-217.99,114.71l3.61,2.66c-11.07,7.3-25.8,21.05-42.99,46.94
		c-35.66,14.28-72.78,29.93-78.65,35.43c-11.73,11-16.13,31.52-5.86,50.51c8.44,15.61,51.03,86.24,60.11,102.97
		c11,20.25,31.51-8.05,29.94-29.57c-2.08-28.62-20.27-66.82-29.04-78.98l132.39-26.02l19.92,26.02
		c-21.04,22.1-35.55,43.09-43.98,67.95c-13.93,41.05-11,80.64,8.8,87.97c19.79,7.33,39.87-44.97,56.45-71.11
		c19.06-30.06,89.43-67.44,112.16-104.71c18.46-30.28,58.83-129.46,82.29-154.38l-35.74-55.16L1582.53,448.54z"/>
	<path class="st0" d="M1749.39,196l-195.72,238.97c33.81-1.66,119.49,63.77,126.08,109.22l291.92-262.43
		C1963.13,239.98,1802.07,175.47,1749.39,196z"/>
	<g>
		<path d="M1311.76,622.86c-1.02,0-2.04-0.33-2.9-1.02c-2-1.6-2.31-4.52-0.71-6.51c1.46-1.81,35.85-44.53,53.91-55.99
			c7.47-4.74,31.27-16.24,61.4-30.8c58.16-28.1,137.81-66.59,155.92-83.39c1.88-1.73,4.81-1.63,6.55,0.25
			c1.74,1.88,1.63,4.81-0.24,6.55c-19.13,17.75-99.51,56.58-158.19,84.94c-28.68,13.86-53.44,25.83-60.47,30.28
			c-16.77,10.64-51.3,53.54-51.65,53.97C1314.46,622.27,1313.11,622.86,1311.76,622.86z"/>
	</g>
	<g>
		<path d="M1309.99,813.34c-3.85,0-9.13-1.69-13.3-9.36c-4.52-8.32-17.66-30.53-30.37-52.01c-13.12-22.17-25.5-43.11-29.75-50.97
			c-10.51-19.44-7.72-42.51,6.77-56.09c12.07-11.32,131.65-55.36,145.25-60.35c2.39-0.88,5.06,0.35,5.94,2.75
			c0.88,2.4-0.35,5.06-2.75,5.94c-50.67,18.58-134.06,50.87-142.1,58.41c-9.35,8.76-14.88,26.56-4.96,44.93
			c4.16,7.7,17.08,29.54,29.57,50.65c12.75,21.55,25.93,43.84,30.53,52.31c2.91,5.36,5.41,4.62,6.34,4.35
			c7.19-2.11,15.88-18,14.9-31.37c-1.93-26.48-24.99-73.57-34.21-86.36c-1.5-2.07-1.03-4.97,1.05-6.47c2.07-1.5,4.97-1.03,6.47,1.05
			c8.38,11.62,33.74,60.99,35.93,91.1c1.25,17.11-9.42,37.38-21.54,40.93C1312.87,813.06,1311.55,813.34,1309.99,813.34z"/>
	</g>
	<g>
		<path d="M1301.66,697.86c-2.41,0-4.44-1.87-4.62-4.31c-0.18-2.55,1.74-4.77,4.29-4.95c1.06-0.07,105.98-7.83,146.9-38.88
			c2.03-1.54,4.94-1.15,6.49,0.89c1.55,2.04,1.15,4.94-0.89,6.49c-43.12,32.71-147.43,40.43-151.85,40.74
			C1301.88,697.85,1301.77,697.86,1301.66,697.86z"/>
	</g>
	<g>
		<path d="M1453.97,697.86c-0.05,0-0.1,0-0.15,0c-2.56-0.08-4.57-2.22-4.48-4.78c0.58-18.57-22.75-21.17-23.75-21.27
			c-2.54-0.26-4.4-2.53-4.15-5.07c0.25-2.54,2.5-4.4,5.06-4.15c11.4,1.11,32.78,8.97,32.09,30.78
			C1458.52,695.88,1456.46,697.86,1453.97,697.86z"/>
	</g>
	<g>
		<path d="M1422.75,854.52c-1.83,0-3.69-0.33-5.58-1.03c-21.98-8.14-26.96-48.46-11.57-93.8c14.15-41.69,80.52-103.4,83.34-106.01
			c1.88-1.73,4.81-1.62,6.55,0.26c1.74,1.88,1.62,4.81-0.26,6.55c-0.67,0.62-67.47,62.72-80.86,102.18
			c-13.28,39.14-10.58,75.99,6.02,82.13c11.11,4.11,26.5-24.78,37.77-45.86c4.6-8.6,8.94-16.72,13.16-23.38
			c9.36-14.76,29.81-30.66,51.47-47.48c24.09-18.72,49-38.08,60.64-57.16c6.73-11.04,16.78-32.15,27.42-54.5
			c18.85-39.59,40.2-84.45,55.45-100.65c1.75-1.86,4.69-1.95,6.55-0.2c1.86,1.75,1.95,4.69,0.2,6.55
			c-14.25,15.14-36.2,61.24-53.83,98.28c-11.21,23.55-20.89,43.89-27.87,55.34c-12.52,20.54-38.12,40.42-62.87,59.65
			c-21,16.32-40.84,31.73-49.34,45.13c-4.04,6.37-8.3,14.34-12.81,22.79C1452.85,828.52,1438.96,854.51,1422.75,854.52z"/>
	</g>
	<g>
		<path d="M1301.67,813.36c-0.21,0-0.42-0.01-0.64-0.04c-19.33-2.66-76.16-78.18-78.94-91.51c-6.23-29.87,9.17-44.4,9.83-45.01
			c1.89-1.73,4.81-1.6,6.55,0.28c1.72,1.88,1.6,4.79-0.26,6.52c-0.56,0.54-12.13,11.93-7.05,36.31
			c2.31,11.05,56.84,82.25,71.13,84.22c2.53,0.35,4.31,2.69,3.96,5.22C1305.93,811.68,1303.94,813.36,1301.67,813.36z"/>
	</g>
	<g>
		<path d="M1333.77,728.38c-1.9,0-3.69-1.18-4.36-3.08c-2.77-7.74-15.64-23.59-20.36-29.05c-1.68-1.93-1.47-4.86,0.47-6.53
			c1.93-1.68,4.86-1.47,6.54,0.47c1.85,2.14,18.23,21.23,22.08,32c0.86,2.41-0.39,5.06-2.8,5.92
			C1334.81,728.29,1334.29,728.38,1333.77,728.38z"/>
	</g>
	<g>
		<path d="M1357.94,732.09c-2.03,0-3.89-1.34-4.46-3.39c-6.8-24.46-22.15-35.07-22.3-35.17c-2.12-1.43-2.68-4.31-1.24-6.43
			s4.31-2.68,6.43-1.24c0.74,0.5,18.34,12.65,26.04,40.37c0.69,2.46-0.76,5.02-3.22,5.7
			C1358.77,732.03,1358.35,732.09,1357.94,732.09z"/>
	</g>
	<g>
		<path d="M1679.75,548.82c-0.53,0-1.06-0.09-1.58-0.28c-1.61-0.58-2.76-2-3.01-3.69c-6.37-43.9-90.75-106.82-121.27-105.26
			c-1.8,0.07-3.54-0.91-4.36-2.54c-0.83-1.64-0.61-3.6,0.55-5.02l195.72-238.97c1.62-1.98,4.54-2.27,6.52-0.65
			c1.98,1.62,2.27,4.54,0.65,6.52l-190.14,232.15c38.78,7.14,106.41,62.09,119.64,104.43l286.09-257.2c1.9-1.71,4.83-1.56,6.54,0.35
			c1.71,1.9,1.55,4.83-0.35,6.54l-291.92,262.43C1681.98,548.41,1680.88,548.82,1679.75,548.82z"/>
	</g>
	<path d="M1565.53,463.78c0,0-25.85-23.87-14.86-30.47c10.99-6.6,39,10.28,39,10.28L1565.53,463.78z"/>
	<path d="M1669.79,516.79c0,0,21.53,27.83,9.59,32.51c-11.94,4.68-24.55-11.07-24.55-11.07L1669.79,516.79z"/>
	<g>
		<path d="M1364.83,1247.7c-47.45,0-100.45-4.73-114.58-17.62c-0.96-0.88-1.51-2.12-1.51-3.42v-77.7c0-2.56,2.07-4.63,4.63-4.63
			s4.63,2.07,4.63,4.63v75.46c15.68,10.61,81.1,16.65,143.83,13c41.29-2.4,61.99-8.15,68.03-12.76v-75.71
			c0-2.56,2.07-4.63,4.63-4.63s4.63,2.07,4.63,4.63v77.7c0,1.12-0.4,2.19-1.13,3.04c-9.5,10.94-46.36,15.27-75.62,16.97
			C1390.95,1247.33,1378.1,1247.7,1364.83,1247.7z"/>
	</g>
	<g>
		<path d="M1364.29,1161.85c-34.89,0-69.9-2.93-78.81-8.85c-1.29-0.86-2.07-2.3-2.07-3.86v-38.85c0-2.56,2.07-4.63,4.63-4.63
			s4.63,2.07,4.63,4.63v36.04c20.52,8.3,124.89,8.5,142.5,0.27v-36.31c0-2.56,2.07-4.63,4.63-4.63s4.63,2.07,4.63,4.63v38.85
			c0,1.37-0.6,2.67-1.65,3.55C1435.54,1158.78,1399.99,1161.85,1364.29,1161.85z"/>
	</g>
	<g>
		<path d="M1363.93,1178.15c-55.4,0-115.19-11.16-115.19-29.19c0-9.85,11.62-16.16,37.69-20.45c2.52-0.42,4.91,1.29,5.32,3.82
			c0.42,2.52-1.29,4.91-3.82,5.32c-29.59,4.87-29.93,11.05-29.93,11.31c1.28,5.74,39.99,19.93,105.93,19.93
			c65.95,0,104.65-14.19,105.94-19.99c0-0.54-0.85-5.91-30.06-10.7c-2.53-0.41-4.24-2.8-3.82-5.32c0.41-2.53,2.81-4.22,5.32-3.83
			c26.52,4.34,37.83,10.29,37.83,19.9C1479.13,1166.99,1419.33,1178.15,1363.93,1178.15z"/>
	</g>
	<g>
		<path d="M1360.89,864.03c-67.4-3.8-68.42-112.17-68.43-116.78c0-1.56,0.78-3.01,2.08-3.88c1.3-0.86,2.94-1.01,4.38-0.39
			c18.37,7.86,105.86,9.28,130.21-0.07c1.42-0.55,3.03-0.36,4.29,0.51c1.26,0.87,2.01,2.3,2,3.82
			c-0.01,4.61-1.02,112.98-68.17,116.77L1360.89,864.03z M1301.96,753.65c1.28,22.75,9.3,98.31,59.18,101.13l5.83-0.01
			c49.74-2.82,57.67-78.62,58.93-101.24C1397.33,760.45,1329.41,760.47,1301.96,753.65z"/>
	</g>
	<g>
		<path d="M1430.78,751.88c-1.39,0-2.77-0.63-3.68-1.82c-0.19-0.24-20.18-25.36-62.71-26.04c-42.39-0.69-62.79,24.96-63.63,26.05
			c-1.56,2.02-4.46,2.4-6.49,0.84c-2.02-1.56-2.41-4.45-0.86-6.48c0.95-1.24,23.9-30.44,71.13-29.67
			c47.22,0.76,69.01,28.49,69.91,29.67c1.56,2.03,1.17,4.94-0.86,6.49C1432.75,751.57,1431.76,751.88,1430.78,751.88z"/>
	</g>
	<path class="st4" d="M1383.6,712.89c0,8.96-8.56,16.22-19.13,16.22c-10.56,0-19.13-7.26-19.13-16.22c0-8.96,8.56-16.22,19.13-16.22
		C1375.03,696.67,1383.6,703.93,1383.6,712.89z"/>
	<g>
		<path d="M1364.47,733.73c-13.1,0-23.76-9.35-23.76-20.85c0-11.5,10.66-20.85,23.76-20.85c13.1,0,23.76,9.35,23.76,20.85
			C1388.23,724.38,1377.57,733.73,1364.47,733.73z M1364.47,701.3c-7.99,0-14.5,5.2-14.5,11.59c0,6.39,6.5,11.59,14.5,11.59
			c7.99,0,14.5-5.2,14.5-11.59C1378.97,706.5,1372.46,701.3,1364.47,701.3z"/>
	</g>
	<g>
		<path d="M1311.76,622.86c-1.02,0-2.04-0.33-2.9-1.02c-2-1.6-2.31-4.52-0.71-6.51c1.46-1.81,35.85-44.53,53.91-55.99
			c7.47-4.74,31.27-16.24,61.4-30.8c58.16-28.1,137.81-66.59,155.92-83.39c1.88-1.73,4.81-1.63,6.55,0.25
			c1.74,1.88,1.63,4.81-0.24,6.55c-19.13,17.75-99.51,56.58-158.19,84.94c-28.68,13.86-53.44,25.83-60.47,30.28
			c-16.77,10.64-51.3,53.54-51.65,53.97C1314.46,622.27,1313.11,622.86,1311.76,622.86z"/>
	</g>
	<path class="st5" d="M1390.2,588.91c0,0-131.95,48.38-143.68,59.38c-11.73,11-16.13,31.52-5.86,50.51
		c8.44,15.61,51.03,86.24,60.11,102.97c11,20.25,31.51-8.05,29.94-29.57c-2.08-28.62-26.3-76.57-35.07-88.73L1390.2,588.91z"/>
	<g>
		<path d="M1309.99,813.34c-3.85,0-9.13-1.69-13.3-9.36c-4.52-8.32-17.66-30.53-30.37-52.01c-13.12-22.17-25.5-43.11-29.75-50.97
			c-10.51-19.44-7.72-42.51,6.77-56.09c12.07-11.32,131.65-55.36,145.25-60.35c2.39-0.88,5.06,0.35,5.94,2.75
			c0.88,2.4-0.35,5.06-2.75,5.94c-50.67,18.58-134.06,50.87-142.1,58.41c-9.35,8.76-14.88,26.56-4.96,44.93
			c4.16,7.7,17.08,29.54,29.57,50.65c12.75,21.55,25.93,43.84,30.53,52.31c2.91,5.36,5.41,4.62,6.34,4.35
			c7.19-2.11,15.88-18,14.9-31.37c-1.93-26.48-24.99-73.57-34.21-86.36c-1.5-2.07-1.03-4.97,1.05-6.47c2.07-1.5,4.97-1.03,6.47,1.05
			c8.38,11.62,33.74,60.99,35.93,91.1c1.25,17.11-9.42,37.38-21.54,40.93C1312.87,813.06,1311.55,813.34,1309.99,813.34z"/>
	</g>
	<path class="st5" d="M1442.9,705.48l15.26,103.24c0,0-35.41,65.07-48.9,31.62C1383.6,776.76,1442.9,705.48,1442.9,705.48z"/>
	<g>
		<path d="M1422.75,854.52c-1.83,0-3.69-0.33-5.58-1.03c-21.98-8.14-26.96-48.46-11.57-93.8c14.15-41.69,80.52-103.4,83.34-106.01
			c1.88-1.73,4.81-1.62,6.55,0.26c1.74,1.88,1.62,4.81-0.26,6.55c-0.67,0.62-67.47,62.72-80.86,102.18
			c-13.28,39.14-10.58,75.99,6.02,82.13c11.11,4.11,26.5-24.78,37.77-45.86c4.6-8.6,8.94-16.72,13.16-23.38
			c9.36-14.76,29.81-30.66,51.47-47.48c24.09-18.72,49-38.08,60.64-57.16c6.73-11.04,16.78-32.15,27.42-54.5
			c18.85-39.59,40.2-84.45,55.45-100.65c1.75-1.86,4.69-1.95,6.55-0.2c1.86,1.75,1.95,4.69,0.2,6.55
			c-14.25,15.14-36.2,61.24-53.83,98.28c-11.21,23.55-20.89,43.89-27.87,55.34c-12.52,20.54-38.12,40.42-62.87,59.65
			c-21,16.32-40.84,31.73-49.34,45.13c-4.04,6.37-8.3,14.34-12.81,22.79C1452.85,828.52,1438.96,854.51,1422.75,854.52z"/>
	</g>
</g>
<g>
	<g>
		<g>
			<path d="M748.8,1149.17c-1.93,0-3.73-1.21-4.38-3.14c-0.83-2.42,0.47-5.05,2.89-5.88l31.18-10.65c2.43-0.83,5.05,0.47,5.88,2.89
				c0.83,2.42-0.47,5.05-2.89,5.88l-31.18,10.65C749.8,1149.09,749.29,1149.17,748.8,1149.17z"/>
		</g>
		<g>
			<path d="M738.52,1116.84c-2.38,0-4.41-1.83-4.61-4.25c-0.21-2.55,1.68-4.79,4.23-5l36.51-3.04c2.57-0.24,4.79,1.68,5,4.23
				c0.21,2.55-1.68,4.79-4.23,5l-36.51,3.04C738.78,1116.84,738.65,1116.84,738.52,1116.84z"/>
		</g>
		<g>
			<path d="M775.04,1089.46c-0.17,0-0.35-0.01-0.52-0.03l-31.01-3.47c-2.54-0.29-4.37-2.58-4.09-5.12c0.28-2.54,2.59-4.34,5.12-4.09
				l31.01,3.47c2.54,0.29,4.37,2.58,4.09,5.12C779.38,1087.71,777.37,1089.46,775.04,1089.46z"/>
		</g>
	</g>
	<g>
		<g>
			<path d="M1132.22,949.07c-0.97,0-1.94-0.3-2.77-0.92c-2.05-1.53-2.47-4.44-0.94-6.48l19.72-26.4c1.53-2.05,4.43-2.47,6.48-0.94
				c2.05,1.53,2.47,4.43,0.94,6.48l-19.72,26.4C1135.02,948.43,1133.63,949.07,1132.22,949.07z"/>
		</g>
		<g>
			<path d="M1150.26,966.68c-1.35,0-2.68-0.58-3.6-1.71c-1.62-1.98-1.32-4.9,0.67-6.52l28.41-23.13c1.98-1.62,4.9-1.31,6.52,0.67
				c1.62,1.98,1.32,4.9-0.67,6.52l-28.41,23.13C1152.33,966.34,1151.29,966.68,1150.26,966.68z"/>
		</g>
		<g>
			<path d="M1164.01,986.77c-1.66,0-3.26-0.89-4.09-2.46c-1.2-2.26-0.34-5.06,1.92-6.26l27.55-14.65c2.26-1.21,5.06-0.34,6.26,1.92
				c1.2,2.26,0.34,5.06-1.92,6.26l-27.55,14.65C1165.49,986.59,1164.74,986.77,1164.01,986.77z"/>
		</g>
	</g>
	<g>
		<g>
			<path d="M1553.38,897.44c-1.72,0-3.38-0.97-4.18-2.62l-14.3-29.69c-1.11-2.31-0.14-5.07,2.16-6.18c2.31-1.12,5.07-0.14,6.18,2.16
				l14.3,29.69c1.11,2.31,0.14,5.07-2.16,6.18C1554.74,897.29,1554.06,897.44,1553.38,897.44z"/>
		</g>
		<g>
			<path d="M1577.32,889.57c-2.15,0-4.08-1.51-4.53-3.7l-7.38-35.88c-0.51-2.51,1.1-4.95,3.6-5.47c2.49-0.51,4.96,1.1,5.47,3.6
				l7.38,35.88c0.51,2.51-1.1,4.96-3.6,5.47C1577.95,889.54,1577.63,889.57,1577.32,889.57z"/>
		</g>
		<g>
			<path d="M1601.49,886.66c-2.54,0-4.61-2.05-4.63-4.59l-0.26-31.2c-0.02-2.56,2.03-4.65,4.59-4.67c0.01,0,0.03,0,0.04,0
				c2.54,0,4.61,2.05,4.63,4.59l0.27,31.2c0.02,2.56-2.03,4.65-4.59,4.67C1601.52,886.66,1601.51,886.66,1601.49,886.66z"/>
		</g>
	</g>
	<g>
		<g>
			<path d="M1854.2,1047.47c-2.19,0-4.14-1.56-4.55-3.8c-0.46-2.52,1.21-4.93,3.72-5.39l32.42-5.93c2.51-0.45,4.93,1.21,5.39,3.72
				c0.46,2.52-1.21,4.93-3.72,5.39l-32.42,5.93C1854.76,1047.45,1854.48,1047.47,1854.2,1047.47z"/>
		</g>
		<g>
			<path d="M1892.01,1075.03c-0.1,0-0.21,0-0.31-0.01l-36.56-2.38c-2.55-0.17-4.49-2.37-4.32-4.92c0.17-2.55,2.4-4.5,4.92-4.32
				l36.56,2.38c2.55,0.17,4.49,2.37,4.32,4.92C1896.47,1073.15,1894.43,1075.03,1892.01,1075.03z"/>
		</g>
		<g>
			<path d="M1882.02,1104.73c-0.39,0-0.79-0.05-1.19-0.16l-30.16-8.01c-2.47-0.66-3.95-3.19-3.29-5.67
				c0.66-2.47,3.19-3.95,5.67-3.29l30.16,8.01c2.47,0.66,3.95,3.19,3.29,5.67C1885.94,1103.36,1884.07,1104.73,1882.02,1104.73z"/>
		</g>
	</g>
</g>
</svg>
